<svg width="15" height="15" viewBox="0 0 15 15" fill="none" xmlns="http://www.w3.org/2000/svg">
<path d="M13.1469 3.28562C13.7156 3.96812 13.9994 4.76437 13.9994 5.67437C13.9994 8.9725 12.1231 9.93937 10.36 10.2237C10.5875 10.6219 10.6444 11.0769 10.6444 11.5319V13.8631C10.6444 14.1475 10.4737 14.3181 10.2462 14.3181C10.1863 14.319 10.1267 14.3078 10.0711 14.2852C10.0156 14.2626 9.96506 14.2292 9.92264 14.1867C9.88022 14.1443 9.84674 14.0938 9.82417 14.0382C9.8016 13.9827 9.79041 13.9231 9.79125 13.8631V11.5319C9.8212 11.2935 9.79573 11.0515 9.71681 10.8246C9.63789 10.5977 9.50765 10.3921 9.33625 10.2237L9.62062 9.48438C11.3837 9.25688 13.2037 8.68812 13.2037 5.6175C13.2037 4.87812 12.9194 4.19562 12.4075 3.62687L12.2937 3.1725C12.51 2.62753 12.5299 2.02428 12.35 1.46625C12.0662 1.5225 11.4975 1.63687 10.5312 2.31937L10.1894 2.37562C8.8461 2.03454 7.43889 2.03454 6.09562 2.37562L5.75375 2.31937C4.73125 1.69375 4.1625 1.52312 3.8775 1.52312C3.70687 2.09187 3.70687 2.71687 3.93375 3.22937L3.82062 3.68375C3.25187 4.2525 2.9675 4.99187 2.9675 5.67437C2.9675 8.68812 4.67375 9.31375 6.55 9.54125L6.7775 10.2806C6.43625 10.6219 6.26562 11.0769 6.3225 11.5319V13.92C6.32334 13.98 6.31215 14.0395 6.28958 14.0951C6.26701 14.1507 6.23353 14.2012 6.19111 14.2436C6.14869 14.286 6.09819 14.3195 6.04261 14.3421C5.98703 14.3646 5.92748 14.3758 5.8675 14.375C5.80751 14.3758 5.74797 14.3646 5.69239 14.3421C5.6368 14.3195 5.58631 14.286 5.54389 14.2436C5.50147 14.2012 5.46799 14.1507 5.44542 14.0951C5.42285 14.0395 5.41166 13.98 5.4125 13.92V12.6125C3.53625 13.0106 2.79687 12.0437 2.22812 11.305C1.94375 10.9637 1.71625 10.6794 1.43187 10.6225C1.37562 10.5656 1.20437 10.3381 1.26125 10.1106C1.31812 9.88312 1.54562 9.7125 1.77375 9.82625C2.3425 9.94 2.68312 10.395 3.02375 10.7931C3.53625 11.4756 4.04812 12.1006 5.58312 11.76V11.5325C5.52687 11.0775 5.64 10.6225 5.8675 10.2244C4.16125 9.88312 2.17125 8.91625 2.17125 5.675C2.17125 4.765 2.45562 3.96875 3.02437 3.28625C2.85375 2.49062 2.91062 1.6375 3.195 0.954998L3.47937 0.727498C3.59312 0.670623 4.38937 0.499998 6.0375 1.52312C7.40021 1.18192 8.82603 1.18192 10.1887 1.52312C11.7819 0.442498 12.635 0.612498 12.7487 0.669998L13.0331 0.897498C13.3175 1.69375 13.3744 2.49 13.1469 3.28562Z" fill="black"/>
</svg>
